{
   "accessors" : [
      {
         "bufferView" : 2,
         "componentType" : 5126,
         "count" : 216,
         "max" : [ 7.750699996948242, -188.5090026855469, 115.5572967529297 ],
         "min" : [ 7.383100032806396, -302.4834899902344, 41.90679931640625 ],
         "type" : "VEC3"
      },
      {
         "bufferView" : 2,
         "byteOffset" : 2592,
         "componentType" : 5126,
         "count" : 216,
         "max" : [ 0.4226062595844269, 0.906313419342041, 0 ],
         "min" : [ 0.4226062595844269, -0.906313419342041, 0 ],
         "type" : "VEC3"
      },
      {
         "bufferView" : 3,
         "componentType" : 5126,
         "count" : 216,
         "max" : [ 0.9063134789466858, 0.4226063191890717, 1.338101952786206e-18, 1 ],
         "min" : [ 0.9063133597373962, -0.422606348991394, -2.378088012808301e-18, 1 ],
         "type" : "VEC4"
      },
      {
         "bufferView" : 1,
         "componentType" : 5126,
         "count" : 216,
         "max" : [ 1, 1 ],
         "min" : [ 0, 0 ],
         "type" : "VEC2"
      },
      {
         "bufferView" : 0,
         "componentType" : 5125,
         "count" : 576,
         "max" : [ 215 ],
         "min" : [ 0 ],
         "type" : "SCALAR"
      },
      {
         "bufferView" : 2,
         "byteOffset" : 5184,
         "componentType" : 5126,
         "count" : 628,
         "max" : [ 8.711799621582031, -186.12060546875, 117.9842987060547 ],
         "min" : [ -31.92149925231934, -305.1205139160156, 36.35710144042969 ],
         "type" : "VEC3"
      },
      {
         "bufferView" : 2,
         "byteOffset" : 12720,
         "componentType" : 5126,
         "count" : 628,
         "max" : [ 1, 1, 1 ],
         "min" : [ -1, -1, -1 ],
         "type" : "VEC3"
      },
      {
         "bufferView" : 3,
         "byteOffset" : 3456,
         "componentType" : 5126,
         "count" : 628,
         "max" : [ 1, 1, 1, 1 ],
         "min" : [ -1, -1, -1, 1 ],
         "type" : "VEC4"
      },
      {
         "bufferView" : 1,
         "byteOffset" : 1728,
         "componentType" : 5126,
         "count" : 628,
         "max" : [ 3.403800010681152, 1.847200036048889 ],
         "min" : [ -2.403800010681152, -8.588100433349609 ],
         "type" : "VEC2"
      },
      {
         "bufferView" : 0,
         "byteOffset" : 2304,
         "componentType" : 5125,
         "count" : 1812,
         "max" : [ 627 ],
         "min" : [ 0 ],
         "type" : "SCALAR"
      },
      {
         "bufferView" : 2,
         "byteOffset" : 20256,
         "componentType" : 5126,
         "count" : 490,
         "max" : [ -31.30319976806641, -200.2682037353516, 109.2434997558594 ],
         "min" : [ -32.81019973754883, -268.8543090820312, 68.9822998046875 ],
         "type" : "VEC3"
      },
      {
         "bufferView" : 2,
         "byteOffset" : 26136,
         "componentType" : 5126,
         "count" : 490,
         "max" : [ 1, 1, 1 ],
         "min" : [ -1, -1, -1 ],
         "type" : "VEC3"
      },
      {
         "bufferView" : 3,
         "byteOffset" : 13504,
         "componentType" : 5126,
         "count" : 490,
         "max" : [ 0.9848158359527588, 1, 1, 1 ],
         "min" : [ -0.9848158359527588, -1, -1, -1 ],
         "type" : "VEC4"
      },
      {
         "bufferView" : 1,
         "byteOffset" : 6752,
         "componentType" : 5126,
         "count" : 490,
         "max" : [ 1.027799963951111, 1 ],
         "min" : [ 0, 0 ],
         "type" : "VEC2"
      },
      {
         "bufferView" : 0,
         "byteOffset" : 9552,
         "componentType" : 5125,
         "count" : 1200,
         "max" : [ 489 ],
         "min" : [ 0 ],
         "type" : "SCALAR"
      },
      {
         "bufferView" : 2,
         "byteOffset" : 32016,
         "componentType" : 5126,
         "count" : 1344,
         "max" : [ 8.114999771118164, -187.7525024414062, 116.2024002075195 ],
         "min" : [ 7.382400035858154, -303.239990234375, 41.26160049438477 ],
         "type" : "VEC3"
      },
      {
         "bufferView" : 2,
         "byteOffset" : 48144,
         "componentType" : 5126,
         "count" : 1344,
         "max" : [ 0.9982281923294067, 1, 1 ],
         "min" : [ -1, -1, -1 ],
         "type" : "VEC3"
      },
      {
         "bufferView" : 3,
         "byteOffset" : 21344,
         "componentType" : 5126,
         "count" : 1344,
         "max" : [ 0.9013842344284058, 1, 1, -1 ],
         "min" : [ -0.9016250371932983, -1, -1, -1 ],
         "type" : "VEC4"
      },
      {
         "bufferView" : 1,
         "byteOffset" : 10672,
         "componentType" : 5126,
         "count" : 1344,
         "max" : [ 1.676100015640259, 1 ],
         "min" : [ -0.0406000018119812, -0.02820000052452087 ],
         "type" : "VEC2"
      },
      {
         "bufferView" : 0,
         "byteOffset" : 14352,
         "componentType" : 5125,
         "count" : 3456,
         "max" : [ 1343 ],
         "min" : [ 0 ],
         "type" : "SCALAR"
      }
   ],
   "asset" : {
      "extras" : {
         "GOOGLE_processor_version" : 306158326,
         "author" : "MOMO購物 (https://sketchfab.com/momoec)",
         "license" : "COPYRIGHT TO MOMO購物",
         "source" : "https://sketchfab.com/3d-models/6185822-1d9b405f59f746648a0c746ba44e0985",
         "title" : "6185822"
      },
      "generator" : "Sketchfab-5.60.0",
      "version" : "2.0"
   },
   "bufferViews" : [
      {
         "buffer" : 0,
         "byteLength" : 28176,
         "byteOffset" : 0,
         "name" : "floatBufferViews",
         "target" : 34963
      },
      {
         "buffer" : 0,
         "byteLength" : 21424,
         "byteOffset" : 28176,
         "byteStride" : 8,
         "name" : "floatBufferViews",
         "target" : 34962
      },
      {
         "buffer" : 0,
         "byteLength" : 64272,
         "byteOffset" : 49600,
         "byteStride" : 12,
         "name" : "floatBufferViews",
         "target" : 34962
      },
      {
         "buffer" : 0,
         "byteLength" : 42848,
         "byteOffset" : 113872,
         "byteStride" : 16,
         "name" : "floatBufferViews",
         "target" : 34962
      }
   ],
   "buffers" : [
      {
         "byteLength" : 156720,
         "uri" : "scene.bin"
      }
   ],
   "cameras" : [
      {
         "perspective" : {
            "yfov" : 0.7853981633974483,
            "znear" : 0.1000000014901161
         },
         "type" : "perspective"
      }
   ],
   "extensions" : {
      "KHR_lights_punctual" : {
         "lights" : [
            {
               "color" : [ 1, 0.9333333333333333, 0.8666666666666667 ],
               "intensity" : 0.25,
               "name" : "headLight",
               "type" : "directional"
            },
            {
               "color" : [ 1, 0.9333333333333333, 0.8666666666666667 ],
               "intensity" : 0.324999988079071,
               "name" : "keyLight",
               "type" : "directional"
            }
         ]
      }
   },
   "extensionsUsed" : [ "GOOGLE_backgrounds", "GOOGLE_camera_settings", "KHR_lights_punctual" ],
   "extras" : {
      "GOOGLE_initial_camera_motion" : {
         "motionPath" : "FULL_ROTATION"
      },
      "GOOGLE_lighting_rig" : {
         "disableShadows" : false
      }
   },
   "images" : [
      {
         "uri" : "textures/09___Default_baseColor.jpeg"
      },
      {
         "uri" : "textures/13___Default_baseColor.png"
      }
   ],
   "materials" : [
      {
         "alphaCutoff" : 0.5,
         "alphaMode" : "OPAQUE",
         "doubleSided" : true,
         "emissiveFactor" : [ 0, 0, 0 ],
         "name" : "09___Default",
         "pbrMetallicRoughness" : {
            "baseColorFactor" : [ 1, 1, 1, 1 ],
            "baseColorTexture" : {
               "index" : 0,
               "texCoord" : 0
            },
            "metallicFactor" : 0,
            "roughnessFactor" : 0.6000000238418579
         }
      },
      {
         "alphaCutoff" : 0.5,
         "alphaMode" : "OPAQUE",
         "doubleSided" : true,
         "emissiveFactor" : [ 0, 0, 0 ],
         "name" : "13___Default",
         "pbrMetallicRoughness" : {
            "baseColorFactor" : [ 1, 1, 1, 1 ],
            "baseColorTexture" : {
               "index" : 1,
               "texCoord" : 0
            },
            "metallicFactor" : 0,
            "roughnessFactor" : 0.6000000238418579
         }
      },
      {
         "alphaCutoff" : 0.5,
         "alphaMode" : "OPAQUE",
         "doubleSided" : true,
         "emissiveFactor" : [ 0, 0, 0 ],
         "name" : "wire_000000000",
         "pbrMetallicRoughness" : {
            "baseColorFactor" : [ 0, 0, 0, 1 ],
            "metallicFactor" : 0,
            "roughnessFactor" : 0.6000000238418579
         }
      },
      {
         "alphaCutoff" : 0.5,
         "alphaMode" : "OPAQUE",
         "doubleSided" : true,
         "emissiveFactor" : [ 0, 0, 0 ],
         "name" : "wire_141007058",
         "pbrMetallicRoughness" : {
            "baseColorFactor" : [ 1, 1, 1, 1 ],
            "metallicFactor" : 0.4932259321212769,
            "roughnessFactor" : 0.6000000238418579
         }
      }
   ],
   "meshes" : [
      {
         "primitives" : [
            {
               "attributes" : {
                  "NORMAL" : 1,
                  "POSITION" : 0,
                  "TANGENT" : 2,
                  "TEXCOORD_0" : 3
               },
               "indices" : 4,
               "material" : 0,
               "mode" : 4
            }
         ]
      },
      {
         "primitives" : [
            {
               "attributes" : {
                  "NORMAL" : 6,
                  "POSITION" : 5,
                  "TANGENT" : 7,
                  "TEXCOORD_0" : 8
               },
               "indices" : 9,
               "material" : 1,
               "mode" : 4
            }
         ]
      },
      {
         "primitives" : [
            {
               "attributes" : {
                  "NORMAL" : 11,
                  "POSITION" : 10,
                  "TANGENT" : 12,
                  "TEXCOORD_0" : 13
               },
               "indices" : 14,
               "material" : 2,
               "mode" : 4
            }
         ]
      },
      {
         "primitives" : [
            {
               "attributes" : {
                  "NORMAL" : 16,
                  "POSITION" : 15,
                  "TANGENT" : 17,
                  "TEXCOORD_0" : 18
               },
               "indices" : 19,
               "material" : 3,
               "mode" : 4
            }
         ]
      }
   ],
   "nodes" : [
      {
         "children" : [ 1 ],
         "name" : "RootNode (gltf orientation matrix)",
         "rotation" : [ -0.7071067811865475, 0, 0, 0.7071067811865476 ]
      },
      {
         "children" : [ 2 ],
         "name" : "RootNode (model correction matrix)"
      },
      {
         "children" : [ 3, 4, 5, 6 ],
         "name" : "7402a990ed034170b1967b8886a45720.obj.cleaner.materialmerger.gles"
      },
      {
         "mesh" : 0,
         "name" : ""
      },
      {
         "mesh" : 1,
         "name" : ""
      },
      {
         "mesh" : 2,
         "name" : ""
      },
      {
         "mesh" : 3,
         "name" : ""
      },
      {
         "children" : [ 8 ]
      },
      {
         "children" : [ 9 ],
         "extras" : {
            "isTransformNode" : 1
         },
         "translation" : [ -11.87684551722871, 76.95467286459291, 245.8003154907629 ]
      },
      {
         "children" : [ 0 ],
         "translation" : [ 11.87684551722871, -76.95467286459291, -245.8003154907629 ]
      },
      {
         "camera" : 0,
         "children" : [ 11 ],
         "rotation" : [
            -0.2222109694422381,
            -0.2518772342127734,
            -0.05954125154647177,
            0.940018607958983
         ],
         "translation" : [ -122.3071229374128, 187.5545592389607, 437.0656625163472 ]
      },
      {
         "extensions" : {
            "KHR_lights_punctual" : {
               "light" : 0
            }
         },
         "extras" : {
            "isHeadLight" : 1
         },
         "name" : "headLightNode",
         "translation" : [ -92.8740140536117, 46.43700702680585, 46.43700702680585 ]
      },
      {
         "extensions" : {
            "KHR_lights_punctual" : {
               "light" : 1
            }
         },
         "extras" : {
            "isKeyLight" : 1
         },
         "name" : "keyLightNode",
         "rotation" : [ -0.7505326882858236, -0.3752663441429118, 0, 0.5439447166468927 ],
         "scale" : [ 0, 0, 93.80275419414782 ],
         "translation" : [ -98.85666167901006, 272.8599021531875, 146.7366227463052 ]
      }
   ],
   "samplers" : [
      {
         "magFilter" : 9729,
         "minFilter" : 9987,
         "wrapS" : 10497,
         "wrapT" : 10497
      }
   ],
   "scene" : 0,
   "scenes" : [
      {
         "extensions" : {
            "GOOGLE_backgrounds" : {
               "color" : [ 0.9333333333333333, 0.9333333333333333, 0.9333333333333333 ]
            },
            "GOOGLE_camera_settings" : {
               "mode" : "movableOrbit",
               "pivot" : [ -11.87907041788046, 76.95807046583658, 245.7986714075841 ]
            }
         },
         "extras" : {
            "GOOGLE_camera_index" : {
               "cameraIndex" : 0,
               "nodeIndex" : 10
            },
            "GOOGLE_geometry_data" : {
               "stats" : {
                  "centroid" : [ -5.053907484862234, 85.25439376489184, 240.5393769404531 ],
                  "radius" : 92.8740140536117,
                  "stdev" : 51.08529991646475
               },
               "visualCenterPoint" : [ -11.87684551722871, 76.95467286459291, 245.8003154907629 ]
            }
         },
         "name" : "OSG_Scene",
         "nodes" : [ 7, 10, 12 ]
      }
   ],
   "textures" : [
      {
         "sampler" : 0,
         "source" : 0
      },
      {
         "sampler" : 0,
         "source" : 1
      }
   ]
}
